<svg xmlns="http://www.w3.org/2000/svg" width="70.98" height="37"><path fill="#e00" d="M70.98 0H0v31.64h30.24L35.59 37l5.35-5.36h30.04z"/><path d="M8.39 21.17c.94.91 2.18 1.43 3.49 1.46 1.19 0 1.89-.38 1.89-1s-.4-.87-1.45-1.05l-2.31-.41a2.825 2.825 0 01-2.66-2.88c0-2 1.62-3.27 4.31-3.27 1.59.01 3.14.54 4.41 1.5l-1.37 1.91a5.147 5.147 0 00-3.21-1.27c-1.05 0-1.7.35-1.7.92s.36.78 1.24.93l2.18.36c2 .33 3.09 1.37 3.09 3 0 2.14-1.75 3.45-4.6 3.45-1.74 0-3.42-.61-4.75-1.72l1.44-1.93zm11.34.11c-.05.74.51 1.39 1.25 1.44h.19c.54.02 1.07-.21 1.42-.62v-5.38h2.43v7.93h-2.43v-.55c-.6.46-1.34.71-2.1.7a3.05 3.05 0 01-3.17-2.92v-5.16h2.43l-.02 4.56zm6.76-4.56h2.43v.51c.57-.44 1.28-.67 2-.66.92-.03 1.79.38 2.36 1.1a3.36 3.36 0 012.58-1.09 3.01 3.01 0 013.08 2.92c0 .09 0 .18-.01.27v4.89h-2.44V20.1c.08-.71-.42-1.35-1.13-1.43-.05-.01-.11-.01-.16-.01-.5-.02-.98.2-1.3.59v5.4h-2.41V20.1c.08-.71-.42-1.35-1.13-1.43-.05-.01-.11-.01-.16-.01-.49-.03-.97.18-1.28.57v5.42h-2.43v-7.93zm13.89 0h2.43v.51c.57-.44 1.28-.67 2-.66.92-.02 1.79.39 2.36 1.1a3.36 3.36 0 012.58-1.09 3.01 3.01 0 013.08 2.92c0 .09 0 .18-.01.27v4.89h-2.45V20.1c.08-.71-.42-1.35-1.13-1.43-.05-.01-.11-.01-.16-.01-.5-.02-.98.2-1.3.59v5.4h-2.4V20.1c.08-.71-.42-1.35-1.13-1.43-.05-.01-.11-.01-.16-.01-.49-.03-.97.18-1.28.57v5.42h-2.43v-7.93zm13.74-2.07a1.34 1.34 0 111.37 1.33 1.34 1.34 0 01-1.35-1.33h-.02zm2.56 10h-2.43v-7.93h2.43v7.93zm2.62-5.91h-1.6v-2h1.6v-2l2.44-.52v2.56h2.21v2h-2.21v3c0 .71.27 1 1 1 .37 0 .74-.05 1.09-.17v2c-.55.15-1.12.23-1.69.24-1.91 0-2.88-.85-2.88-2.52l.04-3.59zm-11.65-7.4c0 .92.55 1.36 1.55 1.36.31-.01.61-.05.91-.13v-1.06a1.9 1.9 0 01-.58.09c-.42 0-.57-.13-.57-.51V9.46h1.2V8.37h-1.2V6.99l-1.31.28v1.1h-.86v1.09h.86v1.88zm-4.06 0c0-.28.28-.42.71-.42.26 0 .52.03.77.1v.54c-.25.14-.53.21-.81.21-.42 0-.67-.17-.67-.43m.4 1.35c.42.02.83-.1 1.18-.33v.26h1.32V9.91c0-1-.71-1.61-1.88-1.61-.69 0-1.38.16-2 .46l.47 1c.41-.19.84-.3 1.29-.33.54 0 .82.21.82.64v.21c-.33-.09-.66-.13-1-.12-1.1 0-1.76.46-1.76 1.28.03.76.67 1.36 1.43 1.33.04 0 .08 0 .12-.01m-7.1-.07h1.38v-2.26h2.34v2.21h1.39V6.99h-1.38v2.17h-2.33V6.99h-1.39l-.01 5.7zm-5.29-2.19c0-.6.48-1.08 1.08-1.08.33-.01.65.11.9.33v1.49c-.25.22-.57.34-.9.33-.6.02-1.11-.45-1.13-1.05m2 2.15h1.29V6.71l-1.31.28v1.6c-1.05-.61-2.4-.25-3.01.8a2.205 2.205 0 001.88 3.31c.41 0 .82-.13 1.15-.38v.35zm-5.93-3.28c.41.02.77.29.9.68h-1.69c.1-.41.47-.69.89-.68m-2.22 1.11a2.236 2.236 0 002.27 2.21h.05c.66.04 1.31-.18 1.81-.61l-.87-.76c-.23.22-.53.34-.85.33-.46.01-.88-.26-1.05-.68h3v-.33a2.195 2.195 0 00-4.35-.57c-.02.12-.02.24-.02.36v.05m-2.23-2.32c.35 0 .64.29.64.64s-.29.64-.64.64h-1.37V8.18h1.37zm-2.76 4.46h1.39v-2h1.06l1.07 2h1.55l-1.24-2.26c.64-.26 1.06-.89 1.06-1.59a1.831 1.831 0 00-1.85-1.81c-.05 0-.1 0-.15.01h-2.89v5.65z" fill="#fff"/></svg>